<?xml version="1.0" standalone="no"?>
<!DOCTYPE svg PUBLIC "-//W3C//DTD SVG 20010904//EN"
 "http://www.w3.org/TR/2001/REC-SVG-20010904/DTD/svg10.dtd">
<svg version="1.0" xmlns="http://www.w3.org/2000/svg"
 width="1254.000000pt" height="1254.000000pt" viewBox="0 0 1254.000000 1254.000000"
 preserveAspectRatio="xMidYMid meet">

<g transform="translate(0.000000,1254.000000) scale(0.100000,-0.100000)"
fill="#000000" stroke="none">
<path d="M4467 9079 c-55 -29 -88 -85 -94 -161 -9 -110 -28 -86 667 -818 102
-107 259 -274 349 -370 174 -185 236 -238 314 -264 62 -21 161 -20 227 1 70
23 151 97 186 171 25 52 28 71 33 207 6 131 9 156 31 200 54 111 162 185 271
185 68 0 151 -27 216 -72 27 -18 119 -77 204 -131 85 -54 309 -198 499 -319
190 -121 419 -268 510 -325 194 -124 240 -165 283 -253 29 -58 32 -74 32 -150
-1 -64 -7 -99 -24 -142 -24 -62 -93 -145 -144 -176 -18 -11 -189 -113 -382
-227 -192 -115 -498 -297 -680 -405 -181 -109 -346 -205 -365 -215 -48 -24
-108 -82 -133 -130 -29 -57 -30 -165 0 -220 12 -22 115 -139 230 -260 282
-299 746 -795 927 -990 268 -290 290 -311 358 -344 127 -62 114 -61 883 -61
532 0 704 3 713 12 27 27 12 57 -75 150 -47 51 -156 167 -242 258 -224 237
-999 1066 -1050 1123 l-44 47 54 22 c100 41 271 128 343 175 635 409 970 1196
830 1947 -140 747 -674 1335 -1373 1511 -175 44 -191 45 -1896 44 -1595 0
-1621 0 -1658 -20z"/>
<path d="M2901 6794 c-98 -35 -172 -110 -205 -208 -53 -160 33 -345 189 -406
l60 -24 1460 2 c803 1 1474 5 1490 8 114 24 212 127 241 253 16 67 19 343 4
372 -11 19 -39 19 -1603 19 -1409 -1 -1597 -3 -1636 -16z"/>
<path d="M4038 5506 c-97 -35 -150 -81 -199 -176 -20 -38 -24 -59 -24 -140 0
-84 3 -101 27 -146 35 -66 111 -134 179 -159 52 -19 79 -20 794 -20 l740 0 67
33 c89 43 139 101 168 192 51 159 -15 318 -165 398 l-50 27 -750 2 c-600 2
-757 0 -787 -11z"/>
</g>
</svg>
